<svg id="Layer_1" enable-background="new 0 0 512 512" height="512" viewBox="0 0 512 512" width="512" xmlns="http://www.w3.org/2000/svg"><g><path d="m207.664 512c-34.849 0-63.2-28.352-63.2-63.2 0-8.284 6.716-15 15-15s15 6.716 15 15c0 18.307 14.894 33.2 33.2 33.2 18.26 0 33.2-14.756 33.2-33.2v-337.4c0-8.284 6.716-15 15-15s15 6.716 15 15v337.4c0 35.296-28.633 63.2-63.2 63.2z" fill="#280000"/><g fill="#95f0e1"><path d="m416.53 62.133c-8.284 0-15-6.716-15-15v-32.133c0-8.284 6.716-15 15-15s15 6.716 15 15v32.133c0 8.284-6.716 15-15 15z"/><path d="m416.53 158.533c-8.284 0-15-6.716-15-15v-32.133c0-8.284 6.716-15 15-15s15 6.716 15 15v32.133c0 8.284-6.716 15-15 15z"/><path d="m175.53 110.333c-8.284 0-15-6.716-15-15v-32.133c0-8.284 6.716-15 15-15s15 6.716 15 15v32.133c0 8.285-6.716 15-15 15z"/><path d="m336.197 110.333c-8.284 0-15-6.716-15-15v-32.133c0-8.284 6.716-15 15-15s15 6.716 15 15v32.133c0 8.285-6.716 15-15 15z"/><path d="m255.864 62.133c-8.284 0-15-6.716-15-15v-32.133c0-8.284 6.716-15 15-15s15 6.716 15 15v32.133c0 8.284-6.716 15-15 15z"/><path d="m95.197 62.133c-8.284 0-15-6.716-15-15v-32.133c0-8.284 6.716-15 15-15s15 6.716 15 15v32.133c0 8.284-6.716 15-15 15z"/><path d="m95.197 158.533c-8.284 0-15-6.716-15-15v-32.133c0-8.284 6.716-15 15-15s15 6.716 15 15v32.133c0 8.284-6.716 15-15 15z"/></g><path d="m256 128.533c-105.762 0-191.729 85.868-191.729 191.729v.004c0 5.199 2.692 10.027 7.114 12.76 5.923 3.661 13.581 2.759 18.495-2.155 12.902-12.902 30.056-20.008 48.302-20.008s35.4 7.105 48.302 20.008c5.858 5.858 15.356 5.863 21.219 0 12.901-12.902 30.054-20.007 48.298-20.008 18.244.001 35.397 7.106 48.298 20.008 5.859 5.859 15.358 5.861 21.219 0 12.902-12.902 30.056-20.008 48.302-20.008s35.4 7.105 48.302 20.008c4.914 4.914 12.573 5.816 18.495 2.155 4.422-2.733 7.114-7.561 7.114-12.76v-.004c-.002-105.861-85.969-191.729-191.731-191.729z" fill="#ff64a0"/><path d="m256 128.533v182.33c18.244.001 35.397 7.106 48.298 20.008 5.859 5.859 15.358 5.861 21.219 0 12.902-12.902 30.056-20.008 48.302-20.008s35.4 7.105 48.302 20.008c4.914 4.914 12.573 5.816 18.495 2.155 4.422-2.733 7.114-7.561 7.114-12.76v-.004c-.001-105.861-85.968-191.729-191.73-191.729z" fill="#d43278"/></g></svg>